<?xml version="1.0" encoding="UTF-8" standalone="no"?>
<svg
   xmlns:dc="http://purl.org/dc/elements/1.1/"
   xmlns:cc="http://creativecommons.org/ns#"
   xmlns:rdf="http://www.w3.org/1999/02/22-rdf-syntax-ns#"
   xmlns:svg="http://www.w3.org/2000/svg"
   xmlns="http://www.w3.org/2000/svg"
   xmlns:sodipodi="http://sodipodi.sourceforge.net/DTD/sodipodi-0.dtd"
   xmlns:inkscape="http://www.inkscape.org/namespaces/inkscape"
   width="750"
   height="500"
   viewBox="0 0 750 500"
   version="1.1"
   id="svg977"
   inkscape:version="1.0.1 (3bc2e813f5, 2020-09-07)"
   sodipodi:docname="aboutme.svg">
  <defs
     id="defs971" />
  <sodipodi:namedview
     id="base"
     pagecolor="#ffffff"
     bordercolor="#666666"
     borderopacity="1.0"
     inkscape:pageopacity="0.0"
     inkscape:pageshadow="2"
     inkscape:zoom="0.7"
     inkscape:cx="312.62664"
     inkscape:cy="305.23006"
     inkscape:document-units="mm"
     inkscape:current-layer="layer1"
     inkscape:document-rotation="0"
     showgrid="false"
     units="px"
     inkscape:window-width="1267"
     inkscape:window-height="728"
     inkscape:window-x="52"
     inkscape:window-y="0"
     inkscape:window-maximized="0" />
  <metadata
     id="metadata974">
    <rdf:RDF>
      <cc:Work
         rdf:about="">
        <dc:format>image/svg+xml</dc:format>
        <dc:type
           rdf:resource="http://purl.org/dc/dcmitype/StillImage" />
        <dc:title />
      </cc:Work>
    </rdf:RDF>
  </metadata>
  <g
     inkscape:label="Layer 1"
     inkscape:groupmode="layer"
     id="layer1">
    <path
       style="fill:#000000;stroke:#000000;stroke-width:1px;stroke-linecap:butt;stroke-linejoin:miter;stroke-opacity:1"
       d="m 336.09182,408.41342 c 0,0 16.12572,12.63 25.62837,12.35544 0,0 19.00531,-1.37283 27.93204,-10.70805 l 46.93736,23.61261 c 0,0 -9.2147,-46.67609 -6.33511,-76.87828 0,0 7.19898,-27.7311 -12.09429,-56.28589 0,0 -7.48693,-11.53174 -30.52367,-13.72827 0,0 -32.25143,-25.26 -74.58144,10.43349 0,0 -18.42939,23.33805 -16.41367,57.10958 0,0 -1.15184,57.38415 -5.75919,66.17024 0,0 -2.59163,14.00283 -4.60734,15.37566 z"
       id="path876" />
    <path
       style="fill:#ffffff;fill-opacity:1;stroke:none;stroke-width:1px;stroke-linecap:butt;stroke-linejoin:miter;stroke-opacity:1"
       d="m 342.89548,336.42719 c 0,0 13.43878,-5.63027 14.86411,-15.14347 0,0 -14.66049,11.84297 -20.15818,12.61955 0,0 -18.32561,6.9893 -20.97264,21.35618 0,0 -14.45687,0.97073 -6.51578,13.39614 0,0 4.07237,8.15417 13.23517,8.93076 0,0 15.27134,26.98643 37.87293,32.81084 0,0 23.21244,0.38829 42.75976,-32.42255 0,0 12.01346,0.19415 15.47496,-14.56102 0,0 -0.81446,-7.96002 -7.9411,-7.76588 0,0 -17.30752,-10.87223 -18.93646,-26.20984 0,0 -13.03154,12.42541 -20.56541,11.84296 l 6.51578,-12.23126 c 0,0 -18.52924,12.23126 -35.63314,7.37759 z"
       id="path863" />
    <path
       style="opacity:1;fill:#000000;stroke:#000000;stroke-width:1px;stroke-linecap:butt;stroke-linejoin:miter;stroke-opacity:1"
       d="m 336.09182,408.41342 -49.81694,27.45653 c 0,0 -30.73149,9.27955 -26.25189,52.38018 l 208.0975,-1.16488 c 0,0 9.01893,-41.97856 -31.5309,-53.41183 l -46.93736,-23.61261 c 0,0 -27.17435,24.52015 -53.56041,-1.64739"
       id="path880" />
    <path
       style="fill:#ff8080;stroke:#000000;stroke-width:1px;stroke-linecap:butt;stroke-linejoin:miter;stroke-opacity:1"
       d="m 313.37088,431.17092 16.28943,-10.48394 20.76903,51.6431 -27.69203,-15.92005 9.36642,-9.70735 z"
       id="path882" />
    <path
       style="fill:#ff8080;stroke:#000000;stroke-width:1px;stroke-linecap:butt;stroke-linejoin:miter;stroke-opacity:1"
       d="m 397.26146,421.07528 -21.99073,52.41968 28.5065,-17.47323 -10.58813,-9.70735 20.36179,-15.14346 z"
       id="path884" />
    <path
       style="fill:#ffffff;stroke:#000000;stroke-width:1px;stroke-linecap:butt;stroke-linejoin:miter;stroke-opacity:1"
       d="m 336.09182,408.41342 25.33289,67.41131 28.22752,-65.76392 c 0,0 -27.17435,24.90844 -53.56041,-1.64739 z"
       id="path886" />
    <path
       style="fill:#ff0000;stroke:#000000;stroke-width:1px;stroke-linecap:butt;stroke-linejoin:miter;stroke-opacity:1"
       d="m 410.3853,446.578 9.79061,-8.78609 c 0,0 44.63368,10.15891 35.9949,39.26283 l -66.80653,0.27457 31.96346,-20.04327 z"
       id="path888" />
    <path
       style="fill:#ff0000;stroke:#000000;stroke-width:1px;stroke-linecap:butt;stroke-linejoin:miter;stroke-opacity:1"
       d="m 304.70427,457.83517 12.38224,-10.70805 -9.21469,-8.51152 c 0,0 -42.33001,6.58957 -35.99491,38.98827 l 64.79083,-0.54913 z"
       id="path890" />
    <path
       style="fill:#ffffff;stroke:none;stroke-width:1px;stroke-linecap:butt;stroke-linejoin:miter;stroke-opacity:1"
       d="m 93.054245,197.98657 0.303458,76.31358 90.406357,-76.10562 z"
       id="path892" />
    <path
       style="fill:#ffffff;stroke:none;stroke-width:1px;stroke-linecap:butt;stroke-linejoin:miter;stroke-opacity:1"
       d="M 665.11206,487.50202 664.97362,411.188 574.40289,487.11574 Z"
       id="path892-6" />
    <path
       style="opacity:1;fill:#ffff00;stroke:#000000;stroke-width:2.902;stroke-linecap:butt;stroke-linejoin:miter;stroke-miterlimit:4;stroke-dasharray:none;stroke-opacity:1"
       d="m 472.23464,270.02891 c 0,0 7.33024,-4.65952 3.25789,-19.0264 0,0 2.44341,-35.33476 41.53805,-23.68594 0,0 28.91374,17.08494 12.62431,44.65381 0,0 -14.25326,16.30835 -35.83675,7.37759 0,0 -7.33025,2.32976 -7.33025,5.82441 0,0 -10.99536,-4.27124 -14.25325,-15.14347 z"
       id="path923" />
    <path
       style="fill:#ffffff;stroke:#000000;stroke-width:2.4;stroke-linecap:butt;stroke-linejoin:miter;stroke-miterlimit:4;stroke-dasharray:none;stroke-opacity:1"
       d="m 472.23464,270.02891 c 0,0 -18.52923,3.88294 -9.57004,20.96788 0,0 11.4026,11.06638 23.82329,-5.82441 0,0 -13.84601,-7.37759 -14.25325,-15.14347 z"
       id="path925" />
    <path
       style="fill:none;stroke:#000000;stroke-width:1px;stroke-linecap:butt;stroke-linejoin:miter;stroke-opacity:1"
       d="m 462.6646,277.7948 c 0,0 1.62894,13.00784 10.38451,15.7259"
       id="path927" />
    <path
       style="fill:none;stroke:#000000;stroke-width:1px;stroke-linecap:butt;stroke-linejoin:miter;stroke-opacity:1"
       d="m 466.32972,273.71771 c 0,0 4.27598,19.60884 12.62431,17.86152"
       id="path929" />
    <path
       style="fill:#ffffff;fill-opacity:1;stroke:none;stroke-width:1px;stroke-linecap:butt;stroke-linejoin:miter;stroke-opacity:1"
       d="m 497.54951,236.04563 -0.43193,-4.11847 c 0,0 11.80633,-2.05925 15.83776,1.64738 l -0.7199,2.74566 c 0,0 -10.51052,-2.47109 -14.68593,-0.27457 z"
       id="path931" />
    <path
       style="fill:#ff0000;fill-opacity:1;stroke:#000000;stroke-width:1px;stroke-linecap:butt;stroke-linejoin:miter;stroke-opacity:1"
       d="m 483.8736,222.44729 -8.14471,-12.42541 7.12662,-2.9122 5.09045,13.97858 z"
       id="path933" />
    <path
       style="fill:#ff6600;fill-opacity:1;stroke:#000000;stroke-width:1px;stroke-linecap:butt;stroke-linejoin:miter;stroke-opacity:1"
       d="m 499.77827,218.04382 -4.51034,-14.00731 7.67308,-1.06221 1.13941,14.75733 z"
       id="path933-9" />
    <path
       style="fill:#ffff00;fill-opacity:1;stroke:#000000;stroke-width:1px;stroke-linecap:butt;stroke-linejoin:miter;stroke-opacity:1"
       d="m 517.03058,218.09118 2.25789,-14.49361 7.40455,2.19299 -5.63888,13.78592 z"
       id="path933-9-2" />
    <path
       style="fill:#008000;fill-opacity:1;stroke:#000000;stroke-width:1px;stroke-linecap:butt;stroke-linejoin:miter;stroke-opacity:1"
       d="m 532.92879,225.39248 8.27688,-12.34575 5.81645,4.88853 -11.05867,10.38157 z"
       id="path933-9-2-5" />
    <path
       style="fill:#000080;fill-opacity:1;stroke:#000000;stroke-width:1px;stroke-linecap:butt;stroke-linejoin:miter;stroke-opacity:1"
       d="m 545.39378,243.58396 12.60355,-8.38354 3.41032,6.63937 -14.38469,5.55351 z"
       id="path933-9-2-5-7" />
    <path
       style="fill:#800080;fill-opacity:1;stroke:#000000;stroke-width:1px;stroke-linecap:butt;stroke-linejoin:miter;stroke-opacity:1"
       d="m 543.74942,262.28002 15.36192,0.39174 -1.39151,7.27286 -15.03228,-3.67724 z"
       id="path933-9-2-5-7-5" />
  </g>
</svg>
