<?xml version="1.0" encoding="UTF-8" standalone="no"?>
<svg
   xmlns:dc="http://purl.org/dc/elements/1.1/"
   xmlns:cc="http://creativecommons.org/ns#"
   xmlns:rdf="http://www.w3.org/1999/02/22-rdf-syntax-ns#"
   xmlns:svg="http://www.w3.org/2000/svg"
   xmlns="http://www.w3.org/2000/svg"
   xmlns:sodipodi="http://sodipodi.sourceforge.net/DTD/sodipodi-0.dtd"
   xmlns:inkscape="http://www.inkscape.org/namespaces/inkscape"
   width="750"
   height="500"
   viewBox="0 0 750 500"
   version="1.1"
   id="svg977"
   sodipodi:docname="animation.svg"
   inkscape:version="1.0.1 (3bc2e813f5, 2020-09-07)">
  <defs
     id="defs971" />
  <sodipodi:namedview
     id="base"
     pagecolor="#ffffff"
     bordercolor="#666666"
     borderopacity="1.0"
     inkscape:pageopacity="0.0"
     inkscape:pageshadow="2"
     inkscape:zoom="0.7"
     inkscape:cx="325.7454"
     inkscape:cy="195.28097"
     inkscape:document-units="mm"
     inkscape:current-layer="layer1"
     inkscape:document-rotation="0"
     showgrid="false"
     units="px"
     inkscape:window-width="1267"
     inkscape:window-height="728"
     inkscape:window-x="52"
     inkscape:window-y="0"
     inkscape:window-maximized="0" />
  <metadata
     id="metadata974">
    <rdf:RDF>
      <cc:Work
         rdf:about="">
        <dc:format>image/svg+xml</dc:format>
        <dc:type
           rdf:resource="http://purl.org/dc/dcmitype/StillImage" />
        <dc:title></dc:title>
      </cc:Work>
    </rdf:RDF>
  </metadata>
  <g
     inkscape:label="Layer 1"
     inkscape:groupmode="layer"
     id="layer1">
    <rect
       style="fill:#000000;stroke-width:6.4"
       id="rect1554"
       width="722.71423"
       height="442.42856"
       x="16.499998"
       y="30.928577" />
    <ellipse
       style="fill:#ff0000;stroke-width:6.4"
       id="path1556"
       cx="38.571426"
       cy="49.82143"
       rx="5.7142859"
       ry="5.8928571" />
    <ellipse
       style="fill:#ffff00;stroke-width:6.4"
       id="path1556-8"
       cx="52.5"
       cy="50.142857"
       rx="5.7142859"
       ry="5.8928571" />
    <ellipse
       style="fill:#00ff00;stroke-width:6.4"
       id="path1556-8-6"
       cx="66.785713"
       cy="49.642857"
       rx="5.7142859"
       ry="5.8928571" />
    <rect
       style="fill:#808080;stroke-width:6.4"
       id="rect1588"
       width="708.57141"
       height="38.57143"
       x="22.857143"
       y="59.14286" />
    <ellipse
       style="opacity:1;fill:#008000;fill-opacity:1;stroke:none;stroke-width:0.755906;stroke-miterlimit:4;stroke-dasharray:none;stroke-opacity:1"
       id="path1714"
       cx="401.42856"
       cy="432.57141"
       rx="80"
       ry="37.142857" />
    <path
       style="fill:#00ff00;stroke:none;stroke-width:1px;stroke-linecap:butt;stroke-linejoin:miter;stroke-opacity:1"
       d="m 133.57143,470.42857 c 0,0 138.57143,-140.71428 301.42857,0.71429 z"
       id="path1697" />
    <path
       style="fill:#00ff00;stroke:none;stroke-width:1px;stroke-linecap:butt;stroke-linejoin:miter;stroke-opacity:1"
       d="m 380,470.66429 c 0,0 138.57143,-140.71428 301.42857,0.71429 z"
       id="path1697-4" />
    <ellipse
       style="opacity:1;fill:#00ffff;fill-opacity:1;stroke:none;stroke-width:0.755906;stroke-miterlimit:4;stroke-dasharray:none;stroke-opacity:1"
       id="path1716"
       cx="118.57143"
       cy="210"
       rx="25.714285"
       ry="24.285715" />
    <ellipse
       style="opacity:1;fill:#00ffff;fill-opacity:1;stroke:none;stroke-width:0.755906;stroke-miterlimit:4;stroke-dasharray:none;stroke-opacity:1"
       id="path1716-7"
       cx="144.28572"
       cy="195.71429"
       rx="25.714285"
       ry="24.285715" />
    <ellipse
       style="opacity:1;fill:#00ffff;fill-opacity:1;stroke:none;stroke-width:0.755906;stroke-miterlimit:4;stroke-dasharray:none;stroke-opacity:1"
       id="path1716-4"
       cx="158.57143"
       cy="214.28572"
       rx="25.714285"
       ry="24.285715" />
    <ellipse
       style="opacity:1;fill:#00ffff;fill-opacity:1;stroke:none;stroke-width:0.755906;stroke-miterlimit:4;stroke-dasharray:none;stroke-opacity:1"
       id="path1716-1"
       cx="451.42859"
       cy="165"
       rx="25.714285"
       ry="24.285715" />
    <ellipse
       style="opacity:1;fill:#00ffff;fill-opacity:1;stroke:none;stroke-width:0.755906;stroke-miterlimit:4;stroke-dasharray:none;stroke-opacity:1"
       id="path1716-7-9"
       cx="477.14288"
       cy="150.71429"
       rx="25.714285"
       ry="24.285715" />
    <ellipse
       style="opacity:1;fill:#00ffff;fill-opacity:1;stroke:none;stroke-width:0.755906;stroke-miterlimit:4;stroke-dasharray:none;stroke-opacity:1"
       id="path1716-4-0"
       cx="491.42859"
       cy="169.28571"
       rx="25.714285"
       ry="24.285715" />
    <ellipse
       style="opacity:1;fill:#00ffff;fill-opacity:1;stroke:none;stroke-width:0.755906;stroke-miterlimit:4;stroke-dasharray:none;stroke-opacity:1"
       id="path1716-8"
       cx="298.57141"
       cy="265"
       rx="25.714285"
       ry="24.285715" />
    <ellipse
       style="opacity:1;fill:#00ffff;fill-opacity:1;stroke:none;stroke-width:0.755906;stroke-miterlimit:4;stroke-dasharray:none;stroke-opacity:1"
       id="path1716-7-93"
       cx="324.28571"
       cy="250.71428"
       rx="25.714285"
       ry="24.285715" />
    <ellipse
       style="opacity:1;fill:#00ffff;fill-opacity:1;stroke:none;stroke-width:0.755906;stroke-miterlimit:4;stroke-dasharray:none;stroke-opacity:1"
       id="path1716-4-9"
       cx="338.57141"
       cy="269.28574"
       rx="25.714285"
       ry="24.285715" />
    <g
       inkscape:label="Layer 1"
       id="layer1-2"
       transform="matrix(5.2145778,0,0,5.5574786,252.63424,397.99149)"
       style="fill:#ff6600;stroke-width:2.06487">
      <path
         style="fill:#ff6600;fill-opacity:1;stroke:none;stroke-width:0.0215091px;stroke-linecap:butt;stroke-linejoin:miter;stroke-opacity:1"
         d="m 5.3577642,3.8048342 c 0,0 -0.3869049,-2.3660722 1.0267861,-2.7232151 0,0 1.7708313,0.2380949 0.8333313,3.3035711 0,0 1.3392857,0.3720238 1.1607143,1.2053571 0,0 -0.8482143,0.7142858 -2.1130952,-0.2827381 0,0 -0.3571396,-0.9821405 -0.9077365,-1.502975 z"
         id="path1990" />
      <path
         style="fill:#ff6600;stroke:none;stroke-width:0.0215091px;stroke-linecap:butt;stroke-linejoin:miter;stroke-opacity:1"
         d="m 5.1041683,3.5937511 c 0,0 -0.1785715,0.3125002 0.342262,1.1979171 0,0 0.4166649,0.8928556 0.8928554,1.0937485 0,0 0.1785714,-0.4315476 -0.5952381,-1.6666667 C 5.7291667,4.1815476 5.4241104,3.7276808 5.1041683,3.5937511 Z"
         id="path1994" />
      <path
         style="fill:#ff6600;stroke:none;stroke-width:0.0215091px;stroke-linecap:butt;stroke-linejoin:miter;stroke-opacity:1"
         d="m 5.0718092,3.8617302 c 0,0 -1.8414245,-1.7046329 -2.8094876,-0.7997043 0,0 -0.8102273,0.8312704 1.1995554,2.2097077 0,0 0.6523901,0.4208969 1.1679888,0.3788072 0,0 -0.599778,1.220601 0.2420157,1.5994082 0,0 1.0522423,0.031567 1.0522423,-1.7046324 0,0 -0.8846737,-1.4156073 -0.8523146,-1.6835864 z"
         id="path2013" />
      <path
         style="fill:#ff6600;stroke:none;stroke-width:0.0215091px;stroke-linecap:butt;stroke-linejoin:miter;stroke-opacity:1"
         d="m 5.0223231,3.4077392 c 0,-0.1116072 0,-0.5580359 -0.052083,-0.9002979 0,0 -0.1041687,-0.8705365 0.2529742,-1.0416675 l 0.066964,0.052083 c 0,0 -0.3869048,0.4166667 -0.1934524,1.1532739 0,0 0.0217,0.8603446 0.1413693,0.9970241 L 5.1041683,3.5937511 5.0718092,3.8617302 c 0,0 -0.4512735,-0.7888135 -0.6521663,-0.9376231 0,0 -0.639881,-0.7291666 -1.0639881,-0.7291666 l 0.037202,-0.059524 c 0,0 0.6919643,0.1488095 0.9970239,0.5877976 0,0 0.5431584,0.6919667 0.6324424,0.6845251 z"
         id="path2015" />
      <ellipse
         style="fill:#ff6600;fill-opacity:1;stroke:none;stroke-width:0.0322635"
         id="path2017"
         cx="3.3854179"
         cy="2.1577384"
         rx="0.081845269"
         ry="0.089285739" />
      <ellipse
         style="fill:#ff6600;fill-opacity:1;stroke:none;stroke-width:0.0322635"
         id="path2017-7"
         cx="5.2380953"
         cy="1.4732144"
         rx="0.081845269"
         ry="0.089285739" />
    </g>
    <g
       inkscape:label="Layer 1"
       id="layer1-2-7"
       transform="matrix(5.2145778,0,0,5.5574786,545.49138,422.2772)"
       style="fill:#d45500;stroke-width:2.06487">
      <path
         style="fill:#d45500;fill-opacity:1;stroke:none;stroke-width:0.0215091px;stroke-linecap:butt;stroke-linejoin:miter;stroke-opacity:1"
         d="m 5.3577642,3.8048342 c 0,0 -0.3869049,-2.3660722 1.0267861,-2.7232151 0,0 1.7708313,0.2380949 0.8333313,3.3035711 0,0 1.3392857,0.3720238 1.1607143,1.2053571 0,0 -0.8482143,0.7142858 -2.1130952,-0.2827381 0,0 -0.3571396,-0.9821405 -0.9077365,-1.502975 z"
         id="path1990-8" />
      <path
         style="fill:#d45500;stroke:none;stroke-width:0.0215091px;stroke-linecap:butt;stroke-linejoin:miter;stroke-opacity:1"
         d="m 5.1041683,3.5937511 c 0,0 -0.1785715,0.3125002 0.342262,1.1979171 0,0 0.4166649,0.8928556 0.8928554,1.0937485 0,0 0.1785714,-0.4315476 -0.5952381,-1.6666667 C 5.7291667,4.1815476 5.4241104,3.7276808 5.1041683,3.5937511 Z"
         id="path1994-6" />
      <path
         style="fill:#d45500;stroke:none;stroke-width:0.0215091px;stroke-linecap:butt;stroke-linejoin:miter;stroke-opacity:1"
         d="m 5.0718092,3.8617302 c 0,0 -1.8414245,-1.7046329 -2.8094876,-0.7997043 0,0 -0.8102273,0.8312704 1.1995554,2.2097077 0,0 0.6523901,0.4208969 1.1679888,0.3788072 0,0 -0.599778,1.220601 0.2420157,1.5994082 0,0 1.0522423,0.031567 1.0522423,-1.7046324 0,0 -0.8846737,-1.4156073 -0.8523146,-1.6835864 z"
         id="path2013-9" />
      <path
         style="fill:#d45500;stroke:none;stroke-width:0.0215091px;stroke-linecap:butt;stroke-linejoin:miter;stroke-opacity:1"
         d="m 5.0223231,3.4077392 c 0,-0.1116072 0,-0.5580359 -0.052083,-0.9002979 0,0 -0.1041687,-0.8705365 0.2529742,-1.0416675 l 0.066964,0.052083 c 0,0 -0.3869048,0.4166667 -0.1934524,1.1532739 0,0 0.0217,0.8603446 0.1413693,0.9970241 L 5.1041683,3.5937511 5.0718092,3.8617302 c 0,0 -0.4512735,-0.7888135 -0.6521663,-0.9376231 0,0 -0.639881,-0.7291666 -1.0639881,-0.7291666 l 0.037202,-0.059524 c 0,0 0.6919643,0.1488095 0.9970239,0.5877976 0,0 0.5431584,0.6919667 0.6324424,0.6845251 z"
         id="path2015-2" />
      <ellipse
         style="fill:#d45500;fill-opacity:1;stroke:none;stroke-width:0.0322635"
         id="path2017-6"
         cx="3.3854179"
         cy="2.1577384"
         rx="0.081845269"
         ry="0.089285739" />
      <ellipse
         style="fill:#d45500;fill-opacity:1;stroke:none;stroke-width:0.0322635"
         id="path2017-7-3"
         cx="5.2380953"
         cy="1.4732144"
         rx="0.081845269"
         ry="0.089285739" />
    </g>
    <path
       style="fill:#008080;stroke:none;stroke-width:1px;stroke-linecap:butt;stroke-linejoin:miter;stroke-opacity:1"
       d="m 435.71429,438.57143 40,-62.85714 31.42857,60 z"
       id="path1854" />
    <rect
       style="opacity:1;fill:#aa4400;fill-opacity:1;stroke:none;stroke-width:0.755906;stroke-miterlimit:4;stroke-dasharray:none;stroke-opacity:1"
       id="rect1856"
       width="7.1428571"
       height="31.428572"
       x="471.42856"
       y="438.57144" />
    <path
       style="fill:#ffaaaa;stroke:none;stroke-width:1px;stroke-linecap:butt;stroke-linejoin:miter;stroke-opacity:1"
       d="m 167.14286,431.90475 25.6,-53.33333 20.11429,50.90909 z"
       id="path1854-4" />
    <rect
       style="opacity:1;fill:#aa4400;fill-opacity:1;stroke:none;stroke-width:0.755903;stroke-miterlimit:4;stroke-dasharray:none;stroke-opacity:1"
       id="rect1856-6"
       width="4.5714283"
       height="26.666668"
       x="189.99998"
       y="431.90479" />
  </g>
</svg>
