<?xml version="1.0" encoding="UTF-8" standalone="no"?>
<svg
   xmlns:dc="http://purl.org/dc/elements/1.1/"
   xmlns:cc="http://creativecommons.org/ns#"
   xmlns:rdf="http://www.w3.org/1999/02/22-rdf-syntax-ns#"
   xmlns:svg="http://www.w3.org/2000/svg"
   xmlns="http://www.w3.org/2000/svg"
   xmlns:sodipodi="http://sodipodi.sourceforge.net/DTD/sodipodi-0.dtd"
   xmlns:inkscape="http://www.inkscape.org/namespaces/inkscape"
   width="750"
   height="500"
   viewBox="0 0 750 500"
   version="1.1"
   id="svg977"
   inkscape:version="1.0.1 (3bc2e813f5, 2020-09-07)"
   sodipodi:docname="books.svg">
  <defs
     id="defs971" />
  <sodipodi:namedview
     id="base"
     pagecolor="#ffffff"
     bordercolor="#666666"
     borderopacity="1.0"
     inkscape:pageopacity="0.0"
     inkscape:pageshadow="2"
     inkscape:zoom="0.49497475"
     inkscape:cx="554.59823"
     inkscape:cy="141.11172"
     inkscape:document-units="mm"
     inkscape:current-layer="layer1"
     inkscape:document-rotation="0"
     showgrid="false"
     units="px"
     inkscape:window-width="1267"
     inkscape:window-height="728"
     inkscape:window-x="52"
     inkscape:window-y="0"
     inkscape:window-maximized="0" />
  <metadata
     id="metadata974">
    <rdf:RDF>
      <cc:Work
         rdf:about="">
        <dc:format>image/svg+xml</dc:format>
        <dc:type
           rdf:resource="http://purl.org/dc/dcmitype/StillImage" />
        <dc:title></dc:title>
      </cc:Work>
    </rdf:RDF>
  </metadata>
  <g
     inkscape:label="Layer 1"
     inkscape:groupmode="layer"
     id="layer1">
    <rect
       style="fill:#e9afaf;stroke-width:6.4"
       id="rect1554"
       width="722.71423"
       height="442.42856"
       x="16.499998"
       y="30.928577" />
    <ellipse
       style="fill:#ff0000;stroke-width:6.4"
       id="path1556"
       cx="38.571426"
       cy="49.82143"
       rx="5.7142859"
       ry="5.8928571" />
    <ellipse
       style="fill:#ffff00;stroke-width:6.4"
       id="path1556-8"
       cx="52.5"
       cy="50.142857"
       rx="5.7142859"
       ry="5.8928571" />
    <ellipse
       style="fill:#00ff00;stroke-width:6.4"
       id="path1556-8-6"
       cx="66.785713"
       cy="49.642857"
       rx="5.7142859"
       ry="5.8928571" />
    <rect
       style="fill:#808080;stroke-width:6.4"
       id="rect1588"
       width="708.57141"
       height="38.57143"
       x="22.857143"
       y="59.14286" />
    <rect
       style="fill:#b3b3b3;stroke-width:6.4;opacity:1"
       id="rect1590"
       width="708.57141"
       height="375.64285"
       x="22.857143"
       y="97.714294" />
    <rect
       style="fill:#483737;stroke:#000000;stroke-width:2.4;stroke-linejoin:round"
       id="rect845"
       width="151.42857"
       height="187.14285"
       x="76.796227"
       y="188.77448" />
    <rect
       style="fill:#241c1c;stroke:#000000;stroke-width:2.4;stroke-linejoin:round"
       id="rect845-8"
       width="151.42857"
       height="187.14285"
       x="300.90863"
       y="189.07033" />
    <rect
       style="fill:#ffffff;stroke:#000000;stroke-width:2.4;stroke-linejoin:round"
       id="rect845-8-4"
       width="151.42857"
       height="187.14285"
       x="515.36768"
       y="188.06018" />
    <rect
       style="fill:#483737;stroke:#000000;stroke-width:2.4;stroke-linejoin:round"
       id="rect877"
       width="78.571426"
       height="75"
       x="262.26514"
       y="61.026787"
       transform="rotate(42.729756)" />
    <text
       xml:space="preserve"
       style="font-style:normal;font-weight:normal;font-size:10.6667px;line-height:1.25;font-family:sans-serif;fill:#ffffff;fill-opacity:1;stroke:none"
       x="121.79623"
       y="281.63162"
       id="text881"><tspan
         sodipodi:role="line"
         id="tspan879"
         x="121.79623"
         y="281.63162"
         style="font-size:10.6667px;fill:#ffffff;fill-opacity:1">HTML &amp; CSS</tspan></text>
    <path
       style="fill:#800000;stroke:#000000;stroke-width:1px;stroke-linecap:butt;stroke-linejoin:miter;stroke-opacity:1"
       d="m 76.796227,235.91733 c 2.857143,-2.85714 37.142853,-47.14285 37.142853,-47.14285 H 76.796225 Z"
       id="path883" />
    <path
       style="fill:#800000;stroke:#000000;stroke-width:1px;stroke-linecap:butt;stroke-linejoin:miter;stroke-opacity:1"
       d="m 228.2248,328.77449 c -2.85715,2.85714 -37.14287,47.14285 -37.14287,47.14285 h 37.14286 z"
       id="path883-8" />
    <path
       style="opacity:1;fill:#ff9955;stroke:#c8b7b7;stroke-width:2.502;stroke-linecap:butt;stroke-linejoin:miter;stroke-miterlimit:4;stroke-dasharray:none;stroke-opacity:1"
       d="m 350.6355,267.40522 h 53.75 l -4.64286,61.42857 -21.96428,6.96428 -22.5,-6.96428 z"
       id="path1759" />
    <path
       style="fill:#ff6600;stroke:none;stroke-width:1px;stroke-linecap:butt;stroke-linejoin:miter;stroke-opacity:1"
       d="m 393.70693,277.90522 -0.35715,8.21429 -24.46428,0.35714 -0.17857,7.5 h 24.64285 l -1.60714,22.85714 -13.92857,4.64286 -14.28572,-5 -0.89285,-12.14286 h 8.03571 l 0.17857,6.07143 7.5,2.67857 7.5,-2.14285 v -9.64286 h -22.85714 l -1.96429,-23.21429 z"
       id="path1761" />
    <text
       xml:space="preserve"
       style="font-size:40px;line-height:0;font-family:sans-serif;text-align:center;text-anchor:middle"
       x="378.22479"
       y="210.91733"
       id="text914"><tspan
         sodipodi:role="line"
         id="tspan912"
         x="378.22479"
         y="210.91733"
         style="font-size:21.3333px;line-height:1.15;fill:#ffffff">The</tspan><tspan
         sodipodi:role="line"
         x="378.22479"
         y="235.45062"
         id="tspan916"
         style="font-size:21.3333px;line-height:1.15;fill:#ffffff">Truth about</tspan><tspan
         sodipodi:role="line"
         x="378.22479"
         y="259.98392"
         id="tspan922"
         style="font-size:21.3333px;line-height:1.15;fill:#ffffff">HTML5</tspan></text>
    <text
       xml:space="preserve"
       style="font-size:10.6667px;line-height:1.25;font-family:sans-serif;text-align:center;text-anchor:middle"
       x="377.77838"
       y="372.16357"
       id="text926"><tspan
         sodipodi:role="line"
         id="tspan924"
         x="377.77838"
         y="372.16357"
         style="font-size:10.6667px;fill:#ffffff">2012 Edition</tspan></text>
    <path
       style="fill:#cccccc;fill-opacity:1;stroke:none;stroke-width:1px;stroke-linecap:butt;stroke-linejoin:miter;stroke-opacity:1"
       d="m 516.34448,373.20305 -0.66161,-121.16999 10.10152,-0.50508 1.01015,123.23861 -10.45006,-1.56354"
       id="path942" />
    <path
       style="fill:#ffff00;stroke:none;stroke-width:1px;stroke-linecap:butt;stroke-linejoin:miter;stroke-opacity:1"
       d="m 525.78439,251.52798 -0.25254,-22.47589 -10.10152,-0.25254 0.25254,23.23351 z"
       id="path944" />
    <rect
       style="fill:#b3b3b3;fill-opacity:1;stroke:none;stroke-width:2.4;stroke-linejoin:round"
       id="rect946"
       width="12.5"
       height="67.85714"
       x="653.58197"
       y="229.13162" />
    <rect
       style="fill:#ffff00;fill-opacity:1;stroke:none;stroke-width:2.4;stroke-linejoin:round"
       id="rect946-3"
       width="12.5"
       height="26.071426"
       x="653.58197"
       y="296.98877" />
    <rect
       style="fill:#b3b3b3;fill-opacity:1;stroke:none;stroke-width:2.4;stroke-linejoin:round"
       id="rect946-3-9"
       width="12.5"
       height="49.999996"
       x="653.58197"
       y="323.06018" />
    <path
       style="fill:#ff00ff;stroke:none;stroke-width:1px;stroke-linecap:butt;stroke-linejoin:miter;stroke-opacity:1"
       d="m 525.78439,251.52798 c 0,0 40.29754,36.53221 41.36897,34.38935 1.07143,-2.14285 0,-56.78571 0,-56.78571 l -41.62151,-0.0795 z"
       id="path978" />
    <path
       style="fill:#ff00ff;stroke:none;stroke-width:1px;stroke-linecap:butt;stroke-linejoin:miter;stroke-opacity:1"
       d="m 612.51051,263.06019 v 59.64286 l 41.07145,0.35712 v -26.07141 z"
       id="path980" />
    <path
       style="fill:#ffff00;stroke:none;stroke-width:1px;stroke-linecap:butt;stroke-linejoin:miter;stroke-opacity:1"
       d="m 575.36765,374.13162 36.42857,-41.78571 0.35714,41.78571 z"
       id="path982" />
    <path
       style="fill:#ffff00;stroke:none;stroke-width:1px;stroke-linecap:butt;stroke-linejoin:miter;stroke-opacity:1"
       d="m 567.15336,229.13162 45.35715,33.92857 0.35714,-33.92857 h -45.71429"
       id="path984" />
    <path
       style="fill:#ff00ff;stroke:none;stroke-width:1px;stroke-linecap:butt;stroke-linejoin:miter;stroke-opacity:1"
       d="m 526.43908,349.13162 38.92857,-1.07143 -38.21429,-25.35714 z"
       id="path986" />
    <rect
       style="fill:#008080;fill-opacity:1;stroke:none;stroke-width:2.4;stroke-linejoin:round"
       id="rect988"
       width="41.07143"
       height="38.214287"
       x="526.08197"
       y="285.20306" />
    <rect
       style="fill:#008080;fill-opacity:1;stroke:none;stroke-width:2.4;stroke-linejoin:round"
       id="rect988-4"
       width="41.07143"
       height="51.999989"
       x="612.51056"
       y="323.06018" />
    <path
       style="fill:#ffd5d5;stroke:none;stroke-width:1px;stroke-linecap:butt;stroke-linejoin:miter;stroke-opacity:1"
       d="m 612.86765,229.13162 h 40.71431 v 67.85714 l -41.07145,-33.92857 z"
       id="path1005" />
    <path
       style="fill:#cccccc;stroke:none;stroke-width:1px;stroke-linecap:butt;stroke-linejoin:miter;stroke-opacity:1"
       d="m 567.15337,323.41734 45.35714,-0.71429 -0.71429,9.64286 -36.42857,41.78571 -8.57143,0.71429 z"
       id="path1007" />
    <path
       style="fill:#ff0000;fill-opacity:1;stroke:none;stroke-width:2.4;stroke-linejoin:round"
       d="m 567.53875,276.47357 c 0.0609,-41.55839 0.12864,-46.75632 0.60429,-46.36373 0.29465,0.24319 10.37947,7.80352 22.41072,16.80074 l 21.875,16.35859 v 29.5587 29.5587 l -7.23214,0.21951 c -3.97768,0.12073 -14.09336,0.32163 -22.4793,0.44644 l -15.24715,0.22693 z"
       id="path1009" />
    <path
       style="fill:#ff0000;fill-opacity:1;stroke:none;stroke-width:2.4;stroke-linejoin:round"
       d="m 526.95015,368.27732 c -0.12831,-3.09375 -0.23383,-8.63839 -0.23449,-12.32143 l -10e-4,-6.69643 1.51786,-0.007 c 3.75019,-0.0174 37.1576,-1.04935 37.25915,-1.15091 0.0625,-0.0625 -8.10388,-5.57308 -18.14755,-12.2457 l -18.26121,-12.13205 18.87222,-0.0925 c 10.37971,-0.0509 18.91386,-0.0508 18.96476,8e-5 0.0509,0.0509 3.6e-4,11.3827 -0.11214,25.18176 l -0.2047,25.0892 h -19.70971 -19.70971 z"
       id="path1011" />
    <path
       style="fill:#ff0000;fill-opacity:1;stroke:none;stroke-width:2.4;stroke-linejoin:round"
       d="m 526.19436,279.17018 c -0.13145,-3.19197 -0.18873,-10.57063 -0.1273,-16.39704 l 0.1117,-10.59347 7.85714,6.98904 c 9.92968,8.83258 21.55862,18.82582 25.67154,22.06063 1.74435,1.37192 3.51221,2.77031 3.92858,3.10753 0.71766,0.58123 -0.22997,0.61373 -18.22281,0.625 l -18.97984,0.0119 z"
       id="path1013" />
    <text
       xml:space="preserve"
       style="font-size:13.3333px;line-height:1.25;font-family:sans-serif;text-align:center;text-anchor:middle"
       x="592.5105"
       y="214.48875"
       id="text1017"><tspan
         sodipodi:role="line"
         id="tspan1015"
         x="592.5105"
         y="214.48875"
         style="font-size:13.3333px">Geometric Graphics</tspan></text>
  </g>
</svg>
