<?xml version="1.0" encoding="UTF-8" standalone="no"?>
<svg
   xmlns:dc="http://purl.org/dc/elements/1.1/"
   xmlns:cc="http://creativecommons.org/ns#"
   xmlns:rdf="http://www.w3.org/1999/02/22-rdf-syntax-ns#"
   xmlns:svg="http://www.w3.org/2000/svg"
   xmlns="http://www.w3.org/2000/svg"
   xmlns:sodipodi="http://sodipodi.sourceforge.net/DTD/sodipodi-0.dtd"
   xmlns:inkscape="http://www.inkscape.org/namespaces/inkscape"
   width="750"
   height="500"
   viewBox="0 0 750 500"
   version="1.1"
   id="svg977"
   sodipodi:docname="graphics.svg"
   inkscape:version="1.0.1 (3bc2e813f5, 2020-09-07)">
  <defs
     id="defs971" />
  <sodipodi:namedview
     id="base"
     pagecolor="#ffffff"
     bordercolor="#666666"
     borderopacity="1.0"
     inkscape:pageopacity="0.0"
     inkscape:pageshadow="2"
     inkscape:zoom="0.7"
     inkscape:cx="339.59821"
     inkscape:cy="207.68446"
     inkscape:document-units="mm"
     inkscape:current-layer="layer1"
     inkscape:document-rotation="0"
     showgrid="false"
     units="px"
     inkscape:window-width="1366"
     inkscape:window-height="705"
     inkscape:window-x="-8"
     inkscape:window-y="-8"
     inkscape:window-maximized="1" />
  <metadata
     id="metadata974">
    <rdf:RDF>
      <cc:Work
         rdf:about="">
        <dc:format>image/svg+xml</dc:format>
        <dc:type
           rdf:resource="http://purl.org/dc/dcmitype/StillImage" />
        <dc:title></dc:title>
      </cc:Work>
    </rdf:RDF>
  </metadata>
  <g
     inkscape:label="Layer 1"
     inkscape:groupmode="layer"
     id="layer1">
    <rect
       style="fill:#000000;stroke-width:6.4"
       id="rect1554"
       width="722.71423"
       height="442.42856"
       x="16.499998"
       y="30.928577" />
    <ellipse
       style="fill:#ff0000;stroke-width:6.4"
       id="path1556"
       cx="38.571426"
       cy="49.82143"
       rx="5.7142859"
       ry="5.8928571" />
    <ellipse
       style="fill:#ffff00;stroke-width:6.4"
       id="path1556-8"
       cx="52.5"
       cy="50.142857"
       rx="5.7142859"
       ry="5.8928571" />
    <ellipse
       style="fill:#00ff00;stroke-width:6.4"
       id="path1556-8-6"
       cx="66.785713"
       cy="49.642857"
       rx="5.7142859"
       ry="5.8928571" />
    <rect
       style="fill:#808080;stroke-width:6.4"
       id="rect1588"
       width="708.57141"
       height="38.57143"
       x="22.857143"
       y="59.14286" />
    <path
       style="fill:#008080;stroke:none;stroke-width:1px;stroke-linecap:butt;stroke-linejoin:miter;stroke-opacity:1"
       d="M 23.233509,121.21831 42.426407,97.479721 22.857143,97.714294 Z"
       id="path881" />
    <ellipse
       style="fill:#ff00ff;stroke:none;stroke-width:0.755906;stroke-linejoin:round"
       id="path883"
       cx="66.670059"
       cy="106.31856"
       rx="3.0304577"
       ry="3.2829957" />
    <ellipse
       style="fill:#ff00ff;stroke:none;stroke-width:0.755906;stroke-linejoin:round"
       id="path883-6"
       cx="82.832512"
       cy="107.07617"
       rx="3.0304577"
       ry="3.2829957" />
    <ellipse
       style="fill:#ff00ff;stroke:none;stroke-width:0.755906;stroke-linejoin:round"
       id="path883-1"
       cx="32.324883"
       cy="126.77415"
       rx="3.0304577"
       ry="3.2829957" />
    <ellipse
       style="fill:#ff00ff;stroke:none;stroke-width:0.755906;stroke-linejoin:round"
       id="path883-8"
       cx="117.1777"
       cy="127.27921"
       rx="3.0304577"
       ry="3.2829957" />
    <ellipse
       style="fill:#ff00ff;stroke:none;stroke-width:0.755906;stroke-linejoin:round"
       id="path883-14"
       cx="49.497475"
       cy="126.26907"
       rx="3.0304577"
       ry="3.2829957" />
    <ellipse
       style="fill:#ff00ff;stroke:none;stroke-width:0.755906;stroke-linejoin:round"
       id="path883-3"
       cx="83.337578"
       cy="127.7843"
       rx="3.0304577"
       ry="3.2829957" />
    <ellipse
       style="fill:#ff00ff;stroke:none;stroke-width:0.755906;stroke-linejoin:round"
       id="path883-81"
       cx="65.659912"
       cy="126.77414"
       rx="3.0304577"
       ry="3.2829957" />
    <ellipse
       style="fill:#ff00ff;stroke:none;stroke-width:0.755906;stroke-linejoin:round"
       id="path883-39"
       cx="99.500023"
       cy="127.27922"
       rx="3.0304577"
       ry="3.2829957" />
    <ellipse
       style="fill:#ff00ff;stroke:none;stroke-width:0.755906;stroke-linejoin:round"
       id="path883-60"
       cx="132.32999"
       cy="127.27922"
       rx="3.0304577"
       ry="3.2829957" />
    <ellipse
       style="fill:#ff00ff;stroke:none;stroke-width:0.755906;stroke-linejoin:round"
       id="path883-37"
       cx="31.31473"
       cy="146.9772"
       rx="3.0304577"
       ry="3.2829957" />
    <ellipse
       style="fill:#ff00ff;stroke:none;stroke-width:0.755906;stroke-linejoin:round"
       id="path883-372"
       cx="32.324883"
       cy="166.67517"
       rx="3.0304577"
       ry="3.2829957" />
    <ellipse
       style="fill:#ff00ff;stroke:none;stroke-width:0.755906;stroke-linejoin:round"
       id="path883-9"
       cx="48.487324"
       cy="147.48228"
       rx="3.0304577"
       ry="3.2829957" />
    <ellipse
       style="fill:#ff00ff;stroke:none;stroke-width:0.755906;stroke-linejoin:round"
       id="path883-393"
       cx="65.154839"
       cy="147.48228"
       rx="3.0304577"
       ry="3.2829957" />
    <ellipse
       style="fill:#ff00ff;stroke:none;stroke-width:0.755906;stroke-linejoin:round"
       id="path883-0"
       cx="82.327438"
       cy="147.48227"
       rx="3.0304577"
       ry="3.2829957" />
    <ellipse
       style="fill:#ff00ff;stroke:none;stroke-width:0.755906;stroke-linejoin:round"
       id="path883-607"
       cx="99.500023"
       cy="147.48227"
       rx="3.0304577"
       ry="3.2829957" />
    <ellipse
       style="fill:#ff00ff;stroke:none;stroke-width:0.755906;stroke-linejoin:round"
       id="path883-61"
       cx="116.16753"
       cy="147.98735"
       rx="3.0304577"
       ry="3.2829957" />
    <ellipse
       style="fill:#ff00ff;stroke:none;stroke-width:0.755906;stroke-linejoin:round"
       id="path883-31"
       cx="48.992393"
       cy="167.18024"
       rx="3.0304577"
       ry="3.2829957" />
    <ellipse
       style="fill:#ff00ff;stroke:none;stroke-width:0.755906;stroke-linejoin:round"
       id="path883-2"
       cx="66.164993"
       cy="167.18025"
       rx="3.0304577"
       ry="3.2829957" />
    <ellipse
       style="fill:#ff00ff;stroke:none;stroke-width:0.755906;stroke-linejoin:round"
       id="path883-4"
       cx="82.327431"
       cy="167.18024"
       rx="3.0304577"
       ry="3.2829957" />
    <ellipse
       style="fill:#ff00ff;stroke:none;stroke-width:0.755906;stroke-linejoin:round"
       id="path883-90"
       cx="99.500031"
       cy="167.18025"
       rx="3.0304577"
       ry="3.2829957" />
    <ellipse
       style="fill:#ff2a2a;stroke:none;stroke-width:0.755906;stroke-linejoin:round"
       id="path1017"
       cx="27.27412"
       cy="240.16376"
       rx="4.5456862"
       ry="4.7982244" />
    <ellipse
       style="fill:#ff2a2a;stroke:none;stroke-width:0.755907;stroke-linejoin:round"
       id="path1017-6"
       cx="70.710678"
       cy="310.11682"
       rx="8.5862961"
       ry="8.3337584" />
    <rect
       style="fill:#008080;stroke:none;stroke-width:0.755906;stroke-linejoin:round"
       id="rect1034"
       width="20.203051"
       height="48.487324"
       x="23.233509"
       y="296.47977" />
    <rect
       style="fill:#008080;stroke:none;stroke-width:0.755906;stroke-linejoin:round"
       id="rect1051"
       width="36.37093"
       height="35.355339"
       x="22.722994"
       y="321.73358" />
    <path
       style="fill:#008080;stroke:none;stroke-width:1px;stroke-linecap:butt;stroke-linejoin:miter;stroke-opacity:1"
       d="m 22.728432,399.01026 c 0,0 34.345187,19.19289 0.505077,38.89087 z"
       id="path1053" />
    <ellipse
       style="fill:#ff00ff;stroke:none;stroke-width:0.755906;stroke-linejoin:round"
       id="path883-61-4"
       cx="36.36549"
       cy="446.99249"
       rx="3.0304577"
       ry="3.2829957" />
    <ellipse
       style="fill:#ff00ff;stroke:none;stroke-width:0.755906;stroke-linejoin:round"
       id="path883-61-0"
       cx="35.860416"
       cy="446.99249"
       rx="3.0304577"
       ry="3.2829957" />
    <ellipse
       style="fill:#ff00ff;stroke:none;stroke-width:0.755906;stroke-linejoin:round"
       id="path883-61-46"
       cx="70.205605"
       cy="448.00266"
       rx="3.0304577"
       ry="3.2829957" />
    <ellipse
       style="fill:#ff00ff;stroke:none;stroke-width:0.755906;stroke-linejoin:round"
       id="path883-61-6"
       cx="52.527931"
       cy="447.49756"
       rx="3.0304577"
       ry="3.2829957" />
    <ellipse
       style="fill:#ff00ff;stroke:none;stroke-width:0.755906;stroke-linejoin:round"
       id="path883-61-48"
       cx="86.368042"
       cy="448.50775"
       rx="3.0304577"
       ry="3.2829957" />
    <ellipse
       style="fill:#ff00ff;stroke:none;stroke-width:0.755906;stroke-linejoin:round"
       id="path883-61-8"
       cx="35.860416"
       cy="467.19556"
       rx="3.0304577"
       ry="3.2829957" />
    <ellipse
       style="fill:#ff00ff;stroke:none;stroke-width:0.755906;stroke-linejoin:round"
       id="path883-61-45"
       cx="53.033009"
       cy="467.70065"
       rx="3.0304577"
       ry="3.2829957" />
    <ellipse
       style="fill:#ff00ff;stroke:none;stroke-width:0.755906;stroke-linejoin:round"
       id="path883-61-64"
       cx="69.19545"
       cy="467.70062"
       rx="3.0304577"
       ry="3.2829957" />
    <rect
       style="fill:#ffff00;stroke:none;stroke-width:0.755906;stroke-linejoin:round"
       id="rect1112"
       width="213.57143"
       height="35"
       x="503.57144"
       y="94.285713" />
    <rect
       style="fill:none;stroke:#ffff00;stroke-width:3.156;stroke-linejoin:round;stroke-miterlimit:4;stroke-dasharray:none;stroke-opacity:1"
       id="rect1112-1"
       width="213.57143"
       height="42.142857"
       x="515.57147"
       y="96.285698" />
    <ellipse
       style="fill:#008080;stroke:none;stroke-width:0.755906;stroke-linejoin:round"
       id="path883-60-5"
       cx="717.20831"
       cy="146.97719"
       rx="3.0304577"
       ry="3.2829957" />
    <ellipse
       style="fill:#008080;stroke:none;stroke-width:0.755906;stroke-linejoin:round"
       id="path883-60-5-9"
       cx="717.71338"
       cy="163.13963"
       rx="3.0304577"
       ry="3.2829957" />
    <circle
       style="fill:#ffff00;stroke:#ffff00;stroke-width:3.156;stroke-linejoin:round;stroke-miterlimit:4;stroke-dasharray:none;stroke-opacity:1"
       id="path1159"
       cx="677.81238"
       cy="-185.86807"
       r="8.586297"
       transform="scale(1,-1)" />
    <path
       style="fill:none;fill-opacity:1;stroke:#ff2a2a;stroke-width:0;stroke-linecap:butt;stroke-linejoin:miter;stroke-miterlimit:4;stroke-dasharray:none;stroke-opacity:1"
       d="M 730.59283,231.57747 711.905,213.8998 l -37.88072,37.88072 39.39595,38.3858 18.68783,-17.67767 z"
       id="path1161-5" />
    <path
       style="fill:#ff2a2a;stroke:none;stroke-width:1px;stroke-linecap:butt;stroke-linejoin:miter;stroke-opacity:1;fill-opacity:1"
       d="m 730.84537,205.56604 -18.68783,-17.67767 -37.88072,37.88072 39.39595,38.3858 18.68783,-17.67767 z"
       id="path1161" />
    <ellipse
       style="fill:#ffff00;stroke:#ffff00;stroke-width:3.156;stroke-linejoin:round;stroke-miterlimit:4;stroke-dasharray:none;stroke-opacity:1"
       id="path1159-7"
       cx="647.50775"
       cy="-384.81735"
       transform="scale(1,-1)"
       rx="5.4332876"
       ry="5.0761447" />
    <path
       style="fill:#ffff00;stroke:none;stroke-width:1px;stroke-linecap:butt;stroke-linejoin:miter;stroke-opacity:1;opacity:1"
       d="M 730.85718,396.24997 574.7768,473.76154 731.42853,473.35715 Z"
       id="path1259" />
    <rect
       style="fill:#008080;fill-opacity:1;stroke:#ff2a2a;stroke-width:0;stroke-linejoin:round;stroke-miterlimit:4;stroke-dasharray:none;stroke-opacity:1"
       id="rect1197"
       width="125.71429"
       height="6.0714288"
       x="605.35712"
       y="427.85715" />
    <rect
       style="fill:#008080;fill-opacity:1;stroke:#ff2a2a;stroke-width:0;stroke-linejoin:round;stroke-miterlimit:4;stroke-dasharray:none;stroke-opacity:1"
       id="rect1197-4"
       width="95.714287"
       height="6.0714288"
       x="635.71429"
       y="415.39285" />
    <rect
       style="fill:#008080;fill-opacity:1;stroke:#ff2a2a;stroke-width:0;stroke-linejoin:round;stroke-miterlimit:4;stroke-dasharray:none;stroke-opacity:1"
       id="rect1197-4-0"
       width="67.5"
       height="6.0714288"
       x="663.35718"
       y="402.24997" />
    <rect
       style="fill:#008080;fill-opacity:1;stroke:#ff2a2a;stroke-width:0;stroke-linejoin:round;stroke-miterlimit:4;stroke-dasharray:none;stroke-opacity:1"
       id="rect1197-4-0-0"
       width="28.928572"
       height="6.0714288"
       x="701.92859"
       y="390.17853" />
    <rect
       style="fill:#008080;fill-opacity:1;stroke:#ff2a2a;stroke-width:0;stroke-linejoin:round;stroke-miterlimit:4;stroke-dasharray:none;stroke-opacity:1"
       id="rect1197-4-0-0-6"
       width="5.7142863"
       height="6.0714288"
       x="725.14288"
       y="378.10709" />
    <ellipse
       style="fill:#ffffff;stroke:none;stroke-width:0.755906;stroke-linejoin:round"
       id="path883-61-48-8"
       cx="693.21429"
       cy="446.78571"
       rx="3.0304577"
       ry="3.2829957" />
    <ellipse
       style="fill:#ffffff;stroke:none;stroke-width:0.755906;stroke-linejoin:round"
       id="path883-61-48-8-4"
       cx="707.5"
       cy="447.14285"
       rx="3.0304577"
       ry="3.2829957" />
    <ellipse
       style="fill:#ffffff;stroke:none;stroke-width:0.755906;stroke-linejoin:round"
       id="path883-61-48-8-8"
       cx="720.35712"
       cy="447.5"
       rx="3.0304577"
       ry="3.2829957" />
    <ellipse
       style="fill:#ffffff;stroke:none;stroke-width:0.755906;stroke-linejoin:round"
       id="path883-61-48-8-9"
       cx="720.71429"
       cy="463.92856"
       rx="3.0304577"
       ry="3.2829957" />
    <ellipse
       style="fill:#ffffff;stroke:none;stroke-width:0.755906;stroke-linejoin:round"
       id="path883-61-48-8-91"
       cx="707.5"
       cy="463.57144"
       rx="3.0304577"
       ry="3.2829957" />
    <ellipse
       style="fill:#ffffff;stroke:none;stroke-width:0.755906;stroke-linejoin:round"
       id="path883-61-48-8-5"
       cx="695"
       cy="464.28571"
       rx="3.0304577"
       ry="3.2829957" />
    <ellipse
       style="fill:#ffffff;stroke:none;stroke-width:0.755906;stroke-linejoin:round"
       id="path883-61-48-8-86"
       cx="681.07141"
       cy="464.64285"
       rx="3.0304577"
       ry="3.2829957" />
    <path
       style="fill:#ffff00;stroke:none;stroke-width:1px;stroke-linecap:butt;stroke-linejoin:miter;stroke-opacity:1"
       d="m 307.14286,446.07143 c 2.5,-2.14286 22.5,-21.42857 22.5,-21.42857 L 351.42857,446.78571 329.64286,467.5 Z"
       id="path1323" />
    <path
       style="fill:#ffff00;stroke:none;stroke-width:1px;stroke-linecap:butt;stroke-linejoin:miter;stroke-opacity:1"
       d="m 363.21429,471.42857 -18.57143,-18.21428 -3.92857,4.28571 17.14285,14.64286 z"
       id="path1325" />
    <path
       style="fill:#ffff00;stroke:none;stroke-width:1px;stroke-linecap:butt;stroke-linejoin:miter;stroke-opacity:1"
       d="m 313.92857,453.92857 -17.14286,17.5 5,0.35714 15.35715,-15.35714 z"
       id="path1327" />
    <ellipse
       style="opacity:1;fill:#ff2a2a;fill-opacity:1;stroke:none;stroke-width:0;stroke-linejoin:round;stroke-miterlimit:4;stroke-dasharray:none;stroke-opacity:1"
       id="path1329"
       cx="377.14285"
       cy="150.35713"
       rx="25.357143"
       ry="24.285715" />
    <path
       sodipodi:type="spiral"
       style="fill:#ff0000;fill-rule:evenodd;stroke:none"
       id="path1331"
       sodipodi:cx="403.21429"
       sodipodi:cy="166.42857"
       sodipodi:expansion="1"
       sodipodi:revolution="3"
       sodipodi:radius="31.186159"
       sodipodi:argument="-18.437145"
       sodipodi:t0="0"
       d="m 403.21429,166.42857 c 1.43253,0.62673 -0.13806,2.24023 -1.04166,2.38096 -2.44872,0.38136 -3.94011,-2.36269 -3.72024,-4.46429 0.3933,-3.75927 4.44835,-5.7684 7.88691,-5.05952 5.04622,1.0403 7.63559,6.55677 6.3988,11.30952 -1.64844,6.33467 -8.67257,9.51846 -14.73214,7.73809 -7.62536,-2.2404 -11.40923,-10.79169 -9.07738,-18.15476 2.82419,-8.91766 12.91266,-13.30456 21.57739,-10.41666 10.21107,3.40328 15.20273,15.03477 11.75594,25 -3.97945,11.50526 -17.15763,17.10281 -28.42262,13.09523 -12.79999,-4.55366 -19.00422,-19.28104 -14.43452,-31.84524 5.12652,-14.09513 21.40485,-20.9066 35.26786,-15.7738 15.39058,5.69838 22.8097,23.52894 17.11309,38.69048" />
    <path
       sodipodi:type="spiral"
       style="fill:#ff0000;fill-rule:evenodd;stroke:none"
       id="path1333"
       sodipodi:cx="445"
       sodipodi:cy="177.14287"
       sodipodi:expansion="1"
       sodipodi:revolution="3"
       sodipodi:radius="21.505814"
       sodipodi:argument="-17.89901"
       sodipodi:t0="0"
       d="m 445,177.14287 c 0.62673,0.87742 -0.87354,1.27771 -1.45833,1.04167 -1.58475,-0.63966 -1.49799,-2.79163 -0.62501,-3.95834 1.56157,-2.08697 4.6728,-1.84341 6.45834,-0.20833 2.62034,2.39954 2.20383,6.58121 -0.20833,8.95833 -3.21503,3.16832 -8.49952,2.57092 -11.45833,-0.62499 -3.72336,-4.02174 -2.94153,-10.42261 1.04165,-13.95834 4.82417,-4.28224 12.34839,-3.31417 16.45834,1.45832 4.84344,5.62422 3.6881,14.27585 -1.87499,18.95834 -6.4228,5.40612 -16.20443,4.06288 -21.45833,-2.29165 -5.96983,-7.22043 -4.43827,-18.13381 2.70831,-23.95834 8.01739,-6.53424 20.06376,-4.81408 26.45834,3.12498 7.0992,8.81387 5.19022,21.99414 -3.54165,28.95834" />
    <path
       style="fill:#008080;stroke:none;stroke-width:1px;stroke-linecap:butt;stroke-linejoin:miter;stroke-opacity:1"
       d="m 450.39933,447.70153 c 2.5,-2.14286 22.5,-21.42857 22.5,-21.42857 l 21.78571,22.14285 -21.78571,20.71429 z"
       id="path1323-7" />
    <path
       style="fill:#008080;stroke:none;stroke-width:1px;stroke-linecap:butt;stroke-linejoin:miter;stroke-opacity:1"
       d="m 506.47076,473.05867 -18.57143,-18.21428 -3.92857,4.28571 17.14285,14.64286 z"
       id="path1325-1" />
    <path
       style="fill:#008080;stroke:none;stroke-width:1px;stroke-linecap:butt;stroke-linejoin:miter;stroke-opacity:1"
       d="m 457.18504,455.55867 -17.14286,17.5 5,0.35714 15.35715,-15.35714 z"
       id="path1327-0" />
    <rect
       style="opacity:1;fill:#008080;fill-opacity:1;stroke:none;stroke-width:0;stroke-linejoin:round;stroke-miterlimit:4;stroke-dasharray:none;stroke-opacity:1"
       id="rect1356"
       width="367.69553"
       height="71.720833"
       x="186.41776"
       y="243.69188" />
    <rect
       style="opacity:1;fill:none;fill-opacity:1;stroke:#008080;stroke-width:5.4;stroke-linejoin:round;stroke-miterlimit:4;stroke-dasharray:none;stroke-opacity:1"
       id="rect1356-2"
       width="367.69553"
       height="71.720833"
       x="197.52943"
       y="269.45074" />
    <path
       style="fill:#ff0000;stroke:none;stroke-width:1px;stroke-linecap:butt;stroke-linejoin:miter;stroke-opacity:1"
       d="m 235.71428,123.74999 c -2.5,-2.14287 -22.49999,-21.42857 -22.49999,-21.42857 l -21.78571,22.14285 21.78571,20.71429 z"
       id="path1323-1" />
    <path
       style="fill:#ff0000;stroke:none;stroke-width:1px;stroke-linecap:butt;stroke-linejoin:miter;stroke-opacity:1"
       d="m 225.00002,115.89285 18.57143,-18.214277 3.92857,4.285707 -17.14286,14.64286 z"
       id="path1325-5" />
    <path
       style="fill:#ff0000;stroke:none;stroke-width:1px;stroke-linecap:butt;stroke-linejoin:miter;stroke-opacity:1"
       d="m 184.28571,98.035723 17.14287,17.499997 -5,0.35714 -15.35715,-15.35714 z"
       id="path1327-08" />
    <path
       style="fill:#008080;stroke:none;stroke-width:1px;stroke-linecap:butt;stroke-linejoin:miter;stroke-opacity:1"
       d="m 158.57143,446.82142 c 2.5,-2.14286 22.5,-21.42857 22.5,-21.42857 l 21.78571,22.14285 -21.78571,20.71429 z"
       id="path1323-7-7" />
    <path
       style="fill:#008080;stroke:none;stroke-width:1px;stroke-linecap:butt;stroke-linejoin:miter;stroke-opacity:1"
       d="m 214.64286,472.17856 -18.57143,-18.21428 -3.92857,4.28571 17.14285,14.64286 z"
       id="path1325-1-7" />
    <path
       style="fill:#008080;stroke:none;stroke-width:1px;stroke-linecap:butt;stroke-linejoin:miter;stroke-opacity:1"
       d="m 165.35714,454.67856 -17.14286,17.5 5,0.35714 15.35715,-15.35714 z"
       id="path1327-0-6" />
  </g>
</svg>
